<?xml version="1.0" encoding="iso-8859-1"?>
<!-- Uploaded to: SVG Repo, www.svgrepo.com, Generator: SVG Repo Mixer Tools -->
<svg version="1.1" id="Layer_1" xmlns="http://www.w3.org/2000/svg" xmlns:xlink="http://www.w3.org/1999/xlink" 
	 viewBox="0 0 512 512" xml:space="preserve">
<polygon style="fill:#FF5858;" points="512,166.957 478.609,166.957 478.609,100.174 478.609,100.174 445.217,100.174 
	445.217,66.783 445.217,66.783 411.826,66.783 411.826,33.391 411.826,33.391 345.043,33.391 345.043,33.391 345.043,0 166.957,0 
	166.957,33.391 100.174,33.391 100.174,66.783 66.783,66.783 66.783,100.174 33.391,100.174 33.391,166.957 0,166.957 0,166.957 
	0,166.957 0,345.043 33.391,345.043 33.391,411.826 33.391,411.826 66.783,411.826 66.783,445.217 66.783,445.217 100.174,445.217 
	100.174,478.609 100.174,478.609 166.957,478.609 166.957,478.609 166.957,512 345.043,512 345.043,478.609 411.826,478.609 
	411.826,445.217 445.217,445.217 445.217,411.826 478.609,411.826 478.609,345.043 512,345.043 512,345.043 512,345.043 "/>
<g>
	<polygon style="fill:#B84848;" points="445.217,256 411.826,256 411.826,289.391 322.783,289.391 322.783,256 289.391,256 
		289.391,166.957 322.783,166.957 322.783,133.565 411.826,133.565 411.826,166.957 445.217,166.957 	"/>
	<polygon style="fill:#B84848;" points="345.043,356.174 345.043,322.783 289.391,322.783 289.391,356.174 256,356.174 256,411.826 
		289.391,411.826 289.391,445.217 345.043,445.217 345.043,411.826 378.435,411.826 378.435,356.174 	"/>
</g>

<g>
	<rect x="166.957" y="66.783" style="fill:#FFFFFF;" width="178.087" height="33.391"/>
	<polygon style="fill:#FFFFFF;" points="100.174,100.174 100.174,133.565 100.174,166.957 133.565,166.957 133.565,133.565 
		166.957,133.565 166.957,100.174 133.565,100.174 	"/>
	<rect x="66.783" y="166.957" style="fill:#FFFFFF;" width="33.391" height="77.913"/>
	<rect x="66.783" y="278.261" style="fill:#FFFFFF;" width="33.391" height="33.391"/>
</g>
</svg>